{"title":"The Girl Next Door 2004 DVDrip English Klam","uid":6677923,"size":1789136637,"categoryP":"video","categoryS":"movies","magnet":"?xt=urn:btih:33759e468274ba90836885e060490f4cc08f61b9&amp;dn=The+Girl+Next+Door+2004+DVDrip+English+Klam&amp;tr=udp%3A%2F%2Ftracker.openbittorrent.com%3A80&amp;tr=udp%3A%2F%2Fopen.demonii.com%3A1337&amp;tr=udp%3A%2F%2Ftracker.coppersurfer.tk%3A6969&amp;tr=udp%3A%2F%2Fexodus.desync.com%3A6969","seeders":0,"leechers":0,"uploader":"Klambake","files":-1,"time":1316093664,"description":"With: Emile Hirsch, Elisha Cuthbert and Timothy Olyphant\n\nMatthew Kidman staat op het punt te slagen voor zijn eindexamen als hij zijn mooie nieuwe buurmeisje Danielle ontmoet. Matthew is ervan overtuigd dat hij het meisje van zijn dromen heeft gevonden, totdat zijn seksgeoriÃƒÂ«nteerde vriend Eli onthult dat Danielle eigenlijk een pornoster is. Matthew is zwaar geschrokken en weet niet hoe hij met de situatie om moet gaan.\n\nA teenager's dreams come true when a former porn star moves in next door and they fall in love. \n\n------------------ Dutch Friends ------------------\nYou can find my Friends at: http://www.Film-Test.nl \n------ They got my dutchs subs ---- and more ------\n\nGeneral:\n\nComplete name                    : The Girl Next Door\\The Girl Next Door.avi\nFormat                           : AVI\nFormat/Info                      : Audio Video Interleave\nFile size                        : 1.67 GiB\nDuration                         : 1h 49mn\nOverall bit rate                 : 2 178 Kbps\n\nVideo:\n\nFormat                           : MPEG-4 Visual\nFormat profile                   : Simple@L3\nFormat settings, BVOP            : No\nFormat settings, QPel            : No\nFormat settings, GMC             : No warppoints\nFormat settings, Matrix          : Default (H.263)\nCodec ID                         : XVID\nCodec ID/Hint                    : XviD\nDuration                         : 1h 49mn\nBit rate                         : 1 719 Kbps\nWidth                            : 652 pixels\nHeight                           : 352 pixels\nDisplay aspect ratio             : 1.852\nFrame rate                       : 23.976 fps\nColor space                      : YUV\nChroma subsampling               : 4:2:0\nBit depth                        : 8 bits\nScan type                        : Progressive\nBits/(Pixel*Frame)               : 0.312\nStream size                      : 1.32 GiB (79%)\nWriting library                  : XviD 1.1.2 (UTC 2006-11-01)\n\nAudio:\n\nFormat                           : AC-3\nFormat/Info                      : Audio Coding 3\nMode extension                   : CM (complete main)\nCodec ID                         : 2000\nDuration                         : 1h 49mn\nBit rate mode                    : Constant\nBit rate                         : 448 Kbps\nChannel(s)                       : 6 channels\nChannel positions                : Front: L C R, Side: L R, LFE\nSampling rate                    : 48.0 KHz\nBit depth                        : 16 bits\nStream size                      : 351 MiB (21%)\nAlignment                        : Aligned on interleaves\nInterleave, duration             : 32 ms (0.77 video frame)\nInterleave, preload duration     : 832 ms\n\n\n","torrent":{"xt":"urn:btih:33759e468274ba90836885e060490f4cc08f61b9","amp;dn":"The+Girl+Next+Door+2004+DVDrip+English+Klam","amp;tr":["udp%3A%2F%2Ftracker.openbittorrent.com%3A80","udp%3A%2F%2Fopen.demonii.com%3A1337","udp%3A%2F%2Ftracker.coppersurfer.tk%3A6969","udp%3A%2F%2Fexodus.desync.com%3A6969"],"infoHash":"33759e468274ba90836885e060490f4cc08f61b9","infoHashBuffer":{"type":"Buffer","data":[51,117,158,70,130,116,186,144,131,104,133,224,96,73,15,76,192,143,97,185]},"announce":[],"urlList":[]}}